<svg width="91" height="91" viewBox="0 0 91 91" fill="none" xmlns="http://www.w3.org/2000/svg">
<g clip-path="url(#clip0_271_297)">
<path d="M91 0H0V91H91V0Z" fill="black"/>
<path fill-rule="evenodd" clip-rule="evenodd" d="M39.279 66.2009V45.7861H39.3956L48.7168 66.2009H53.0283L43.2993 45.8414C50.3481 45.6202 51.5714 40.4198 51.5714 35.109C51.5714 24.9292 45.6878 24.4866 39.5703 24.4866H35.2014V66.2009H39.279ZM39.279 28.0273H40.0945C45.2796 28.0273 47.3768 28.6914 47.3768 35.2749C47.3768 40.752 46.4452 42.6329 40.736 42.6329H39.279V28.0273Z" fill="white"/>
<path fill-rule="evenodd" clip-rule="evenodd" d="M71.3297 61.6281C69.7021 62.7031 67.774 63.5521 65.7243 63.5521C57.6495 63.5521 57.6495 50.3668 57.6495 45.3868C57.6495 37.464 58.6736 27.4477 66.0265 27.4477C68.1351 27.4477 69.6421 28.2401 71.3297 29.315V24.9578C69.9433 23.9954 67.6534 23.5996 65.9658 23.5996C53.5514 23.5996 53.3098 40.1238 53.3098 47.0279C53.3098 54.3278 54.8767 67.4002 65.5437 67.4002C67.5328 67.4002 69.7628 66.6644 71.3297 65.6458L71.3297 61.6281Z" fill="white"/>
<path fill-rule="evenodd" clip-rule="evenodd" d="M31.0354 24.2151H26.8478V59.3733C26.8478 61.6756 26.4888 63.8102 23.7976 63.8102C22.1828 63.8102 20.8663 62.9677 19.6703 61.9567V66.0565C21.2067 66.769 22.8815 67.1335 24.575 67.1238C30.6757 67.1238 31.0354 63.9224 31.0354 58.6433V24.2151Z" fill="white"/>
</g>
<defs>
<clipPath id="clip0_271_297">
<rect width="91" height="91" fill="white"/>
</clipPath>
</defs>
</svg>
